<?xml version="1.0" encoding="UTF-8" standalone="no"?><!DOCTYPE svg PUBLIC "-//W3C//DTD SVG 1.1//EN" "http://www.w3.org/Graphics/SVG/1.1/DTD/svg11.dtd"><svg width="100%" height="100%" viewBox="0 0 75 116" version="1.1" xmlns="http://www.w3.org/2000/svg" xmlns:xlink="http://www.w3.org/1999/xlink" xml:space="preserve" xmlns:serif="http://www.serif.com/" style="fill-rule:evenodd;clip-rule:evenodd;stroke-linecap:round;stroke-linejoin:round;stroke-miterlimit:1.5;"><g><path d="M52.476,109.47c-31.054,8.25 -63.055,-63.823 -37.339,-103.72c46.654,20.275 71.3,81.503 37.339,103.72Z" style="fill:#419d64;"/><path d="M53.146,112.018c-2.649,0.728 -13.239,3.556 -26.136,-8.167c-7.946,-7.223 -15.352,-18.858 -20.202,-33.416c-0.603,-1.811 -1.238,-4.151 -1.337,-4.515c-3.966,-14.624 -3.55,-25.77 -3.348,-29.603c0.366,-6.969 1.532,-12.473 2.648,-16.417c0.025,-0.09 0.92,-3.181 2.57,-6.922c1.957,-4.437 3.944,-7.488 4.902,-8.916c0.186,-0.278 0.174,-0.287 0.397,-0.536c0.92,-1.031 2.096,-1.1 2.3,-1.112c0.083,-0.005 0.528,-0.031 1.039,0.103c0.402,0.105 0.395,0.124 0.771,0.299c4.699,2.185 8.468,4.539 9.199,4.973c35.046,20.792 54.782,64.146 40.256,90.751c-3.699,6.775 -8.703,10.775 -12.18,13.066c-0.095,0.063 -0.094,0.063 -0.103,0.067c-0.384,0.181 -0.391,0.165 -0.775,0.345Zm-1.731,-5.008c3.827,-2.582 13.927,-10.33 14.109,-27.851c0.236,-22.688 -16.557,-50.985 -42.953,-66.177c-0.26,-0.149 -1.943,-1.073 -4.06,-2.088c-0.703,-0.337 -1.359,-0.639 -1.946,-0.902c-1.612,3.025 -3.221,6.788 -4.506,11.698c-0.435,1.661 -2.924,9.567 -2.52,21.87c0.126,3.853 0.587,12.967 4.118,24.422c0.575,1.865 5.27,18.65 16.525,30.352c1.533,1.594 5.49,5.52 10.599,7.608c4.841,1.979 8.505,1.53 10.634,1.068Z" style="fill:#1a2433;"/><path d="M15.974,5.75c10.961,36.331 35.092,66.374 35.941,103.895" style="fill:none;stroke:#1a2433;stroke-width:5px;"/></g></svg>