<svg width="24" height="24" viewBox="0 0 24 24" fill="none" xmlns="http://www.w3.org/2000/svg">
  <g clip-path="url(#clip0_icon)">
    <path d="M18.816 13.58C21.108 15.718 22.362 17.58 21.908 18.48C21.162 19.94 16.125 18.22 10.653 14.64C5.183 11.063 1.348 6.98 2.093 5.52C2.556 4.61 5.019 5.08 7.893 6.325" 
      stroke="currentColor" stroke-width="1.5" stroke-linecap="round" stroke-linejoin="round"/>
    <path d="M5 12C5 12.93 5.181 13.85 5.533 14.7C5.885 15.55 6.4 16.327 7.05 16.976C7.7 17.626 8.476 18.141 9.326 18.493C10.176 18.845 11.094 19.026 12.024 19.026C12.954 19.026 13.873 18.845 14.723 18.493C15.573 18.141 15.633 18 16.088 17.7C15.81 17.6 15.477 17.4 14.81 17.1C13.73 16.55 14.81 17.1 13.73 16.55C12.864 16 13.73 16.55 12.864 16C11.89 15.45 12.864 16 11.89 15.45C10.702 14.7 11.89 15.45 10.702 14.7C9.19 13.73 10.702 14.7 9.19 13.73C7.784 12.65 9.19 13.73 7.784 12.65C6.163 11.35 7.784 12.65 6.163 11.35C5.223 10.4 5.816 11.13 5.172 10.42C5.16 11.05 5 11.07 5 12Z" 
      fill="currentColor" stroke="currentColor" stroke-width="0.5" stroke-linecap="round" stroke-linejoin="round"/>
    <path d="M5 12C5 12.93 5.181 13.85 5.533 14.7C5.885 15.55 6.4 16.327 7.05 16.976C7.7 17.626 8.476 18.141 9.326 18.493C10.176 18.845 11.094 19.026 12.024 19.026C12.954 19.026 13.873 18.845 14.723 18.493C15.573 18.141 16.327 17.626 16.976 16.976C17.626 16.327 18.141 15.55 18.493 14.7C18.845 13.85 19.026 12.93 19.026 12C19.026 11.07 18.845 10.15 18.493 9.3C18.141 8.45 17.626 7.673 16.976 7.024C16.327 6.374 15.573 5.859 14.723 5.507C13.873 5.155 12.954 4.974 12.024 4.974C11.094 4.974 10.176 5.155 9.326 5.507C8.476 5.859 7.7 6.374 7.05 7.024C6.4 7.673 5.885 8.45 5.533 9.3C5.181 10.15 5 11.07 5 12Z" 
      stroke="currentColor" stroke-width="1.5" stroke-linecap="round" stroke-linejoin="round"/>
  </g>
  <defs>
    <clipPath id="clip0_icon">
      <rect width="24" height="24" fill="white"/>
    </clipPath>
  </defs>
</svg> 